<svg xmlns="http://www.w3.org/2000/svg" xmlns:xlink="http://www.w3.org/1999/xlink" width="500" zoomAndPan="magnify" viewBox="0 0 375 374.999991" height="500" preserveAspectRatio="xMidYMid meet" version="1.0"><defs><clipPath id="e4a334b434"><path d="M 9.558594 9.558594 L 365.441406 9.558594 L 365.441406 365.441406 L 9.558594 365.441406 Z M 9.558594 9.558594 " clip-rule="nonzero"/></clipPath><clipPath id="b35a38316b"><path d="M 187.5 9.558594 C 89.226562 9.558594 9.558594 89.226562 9.558594 187.5 C 9.558594 285.773438 89.226562 365.441406 187.5 365.441406 C 285.773438 365.441406 365.441406 285.773438 365.441406 187.5 C 365.441406 89.226562 285.773438 9.558594 187.5 9.558594 " clip-rule="nonzero"/></clipPath><clipPath id="281778beae"><path d="M 63 93.453125 L 313 93.453125 L 313 259.953125 L 63 259.953125 Z M 63 93.453125 " clip-rule="nonzero"/></clipPath></defs><g clip-path="url(#e4a334b434)"><g clip-path="url(#b35a38316b)"><path fill="#f6f6f8" d="M 9.558594 9.558594 L 365.441406 9.558594 L 365.441406 365.441406 L 9.558594 365.441406 Z M 9.558594 9.558594 " fill-opacity="1" fill-rule="nonzero"/></g></g><g clip-path="url(#281778beae)"><path fill="#000000" d="M 249.980469 135.746094 C 244.488281 135.746094 239.09375 136.464844 233.789062 137.902344 C 233.316406 136.308594 232.78125 134.734375 232.183594 133.183594 C 231.582031 131.632812 230.921875 130.109375 230.199219 128.609375 C 229.480469 127.113281 228.699219 125.644531 227.859375 124.210938 C 227.023438 122.773438 226.125 121.375 225.175781 120.011719 C 224.222656 118.648438 223.21875 117.324219 222.164062 116.039062 C 221.105469 114.757812 220 113.519531 218.84375 112.324219 C 217.6875 111.132812 216.484375 109.984375 215.234375 108.886719 C 213.988281 107.789062 212.695312 106.742188 211.363281 105.75 C 210.03125 104.753906 208.660156 103.816406 207.253906 102.933594 C 205.847656 102.046875 204.40625 101.222656 202.933594 100.453125 C 201.457031 99.683594 199.957031 98.976562 198.425781 98.328125 C 196.894531 97.679688 195.339844 97.09375 193.765625 96.570312 C 192.1875 96.046875 190.589844 95.585938 188.976562 95.191406 C 187.363281 94.796875 185.734375 94.46875 184.09375 94.203125 C 182.453125 93.9375 180.804688 93.738281 179.148438 93.605469 C 177.492188 93.472656 175.832031 93.410156 174.171875 93.410156 C 170.765625 93.402344 167.382812 93.671875 164.023438 94.226562 C 160.664062 94.777344 157.375 95.601562 154.152344 96.699219 C 150.929688 97.800781 147.820312 99.15625 144.824219 100.769531 C 141.824219 102.382812 138.980469 104.234375 136.289062 106.320312 C 133.820312 108.230469 131.503906 110.3125 129.34375 112.570312 C 127.1875 114.824219 125.207031 117.230469 123.410156 119.785156 C 121.609375 122.335938 120.011719 125.007812 118.613281 127.800781 C 117.210938 130.59375 116.03125 133.476562 115.0625 136.445312 C 113.160156 136.765625 111.277344 137.175781 109.414062 137.675781 C 107.550781 138.171875 105.714844 138.753906 103.90625 139.421875 C 102.09375 140.089844 100.320312 140.839844 98.582031 141.675781 C 96.839844 142.507812 95.144531 143.417969 93.488281 144.410156 C 91.835938 145.402344 90.230469 146.46875 88.675781 147.609375 C 87.117188 148.75 85.617188 149.960938 84.175781 151.238281 C 82.734375 152.519531 81.351562 153.863281 80.035156 155.273438 C 78.714844 156.683594 77.464844 158.148438 76.285156 159.675781 C 75.101562 161.199219 73.992188 162.777344 72.957031 164.402344 C 71.921875 166.03125 70.964844 167.703125 70.085938 169.421875 C 69.207031 171.140625 68.410156 172.894531 67.691406 174.6875 C 66.976562 176.476562 66.34375 178.296875 65.796875 180.148438 C 65.25 182 64.789062 183.871094 64.414062 185.765625 C 64.042969 187.65625 63.757812 189.5625 63.5625 191.484375 C 63.367188 193.402344 63.257812 195.328125 63.242188 197.257812 C 63.226562 199.1875 63.296875 201.113281 63.460938 203.035156 C 63.621094 204.960938 63.871094 206.871094 64.210938 208.769531 C 64.550781 210.671875 64.976562 212.550781 65.492188 214.410156 C 66.007812 216.269531 66.605469 218.101562 67.292969 219.90625 C 67.976562 221.710938 68.742188 223.476562 69.59375 225.210938 C 70.441406 226.941406 71.367188 228.632812 72.375 230.277344 C 73.382812 231.925781 74.460938 233.519531 75.617188 235.066406 C 76.769531 236.613281 77.996094 238.101562 79.289062 239.535156 C 80.582031 240.964844 81.9375 242.335938 83.355469 243.640625 C 84.777344 244.945312 86.253906 246.183594 87.789062 247.351562 C 89.324219 248.519531 90.910156 249.613281 92.546875 250.632812 C 94.183594 251.652344 95.867188 252.597656 97.589844 253.460938 C 99.316406 254.324219 101.074219 255.105469 102.871094 255.804688 C 104.671875 256.507812 106.496094 257.121094 108.351562 257.652344 C 110.203125 258.183594 112.078125 258.625 113.976562 258.980469 C 115.871094 259.335938 117.777344 259.601562 119.699219 259.78125 C 121.621094 259.960938 123.542969 260.046875 125.472656 260.046875 L 255.792969 259.953125 L 255.96875 259.953125 C 257.941406 259.769531 259.898438 259.492188 261.84375 259.125 C 263.789062 258.753906 265.710938 258.292969 267.613281 257.738281 C 269.511719 257.183594 271.382812 256.539062 273.222656 255.808594 C 275.058594 255.074219 276.859375 254.257812 278.621094 253.351562 C 280.382812 252.449219 282.097656 251.460938 283.761719 250.394531 C 285.429688 249.324219 287.042969 248.179688 288.601562 246.957031 C 290.15625 245.734375 291.652344 244.441406 293.089844 243.078125 C 294.523438 241.710938 295.890625 240.28125 297.1875 238.785156 C 298.484375 237.289062 299.707031 235.738281 300.855469 234.125 C 302.007812 232.511719 303.078125 230.847656 304.066406 229.132812 C 305.058594 227.417969 305.964844 225.660156 306.789062 223.859375 C 307.613281 222.058594 308.347656 220.222656 308.996094 218.351562 C 309.640625 216.480469 310.199219 214.582031 310.667969 212.65625 C 311.132812 210.730469 311.507812 208.789062 311.789062 206.828125 C 312.070312 204.867188 312.257812 202.898438 312.351562 200.917969 C 312.445312 198.941406 312.441406 196.960938 312.347656 194.984375 C 312.253906 193.003906 312.0625 191.035156 311.78125 189.074219 C 311.496094 187.117188 311.121094 185.171875 310.652344 183.25 C 310.183594 181.324219 309.625 179.425781 308.972656 177.554688 C 308.324219 175.683594 307.585938 173.847656 306.761719 172.050781 C 305.9375 170.25 305.027344 168.492188 304.035156 166.777344 C 303.042969 165.0625 301.972656 163.402344 300.820312 161.789062 C 299.667969 160.179688 298.445312 158.625 297.144531 157.132812 C 295.847656 155.636719 294.476562 154.207031 293.042969 152.84375 C 291.605469 151.480469 290.109375 150.1875 288.550781 148.96875 C 286.992188 147.75 285.378906 146.605469 283.710938 145.539062 C 282.042969 144.472656 280.328125 143.488281 278.566406 142.585938 C 276.804688 141.683594 275.003906 140.863281 273.164062 140.132812 C 271.324219 139.402344 269.453125 138.761719 267.550781 138.210938 C 265.648438 137.660156 263.726562 137.199219 261.78125 136.832031 C 259.835938 136.460938 257.878906 136.1875 255.90625 136.007812 C 253.9375 135.824219 251.960938 135.738281 249.980469 135.746094 Z M 272.183594 247.878906 L 246.9375 222.648438 C 247.078125 222.328125 247.203125 222.003906 247.308594 221.671875 C 247.410156 221.339844 247.496094 221.003906 247.5625 220.664062 C 247.628906 220.324219 247.675781 219.980469 247.707031 219.632812 C 247.734375 219.285156 247.742188 218.9375 247.730469 218.589844 C 247.71875 218.242188 247.6875 217.898438 247.636719 217.554688 C 247.585938 217.210938 247.515625 216.871094 247.425781 216.535156 C 247.335938 216.199219 247.230469 215.867188 247.105469 215.542969 C 246.976562 215.21875 246.832031 214.90625 246.671875 214.597656 C 246.507812 214.289062 246.332031 213.992188 246.136719 213.703125 C 245.941406 213.417969 245.730469 213.140625 245.503906 212.878906 C 245.273438 212.613281 245.035156 212.367188 244.78125 212.128906 C 244.523438 211.894531 244.257812 211.671875 243.976562 211.464844 C 243.699219 211.261719 243.40625 211.070312 243.105469 210.898438 C 242.804688 210.722656 242.492188 210.570312 242.175781 210.429688 C 241.855469 210.292969 241.53125 210.171875 241.199219 210.070312 C 240.867188 209.96875 240.527344 209.886719 240.1875 209.824219 C 239.84375 209.761719 239.5 209.71875 239.15625 209.695312 C 238.808594 209.671875 238.460938 209.667969 238.113281 209.679688 C 237.765625 209.695312 237.421875 209.730469 237.078125 209.785156 C 236.734375 209.839844 236.394531 209.914062 236.0625 210.003906 C 235.726562 210.097656 235.398438 210.210938 235.074219 210.339844 C 234.753906 210.46875 234.4375 210.617188 234.132812 210.78125 C 233.828125 210.945312 233.53125 211.128906 233.246094 211.328125 C 232.960938 211.527344 232.6875 211.738281 232.429688 211.96875 C 232.167969 212.199219 231.921875 212.441406 231.6875 212.699219 C 231.453125 212.957031 231.234375 213.226562 231.03125 213.507812 C 230.828125 213.792969 230.644531 214.085938 230.472656 214.386719 C 230.304688 214.691406 230.152344 215.003906 230.015625 215.324219 C 229.882812 215.644531 229.765625 215.972656 229.667969 216.304688 C 229.570312 216.636719 229.492188 216.976562 229.433594 217.320312 C 229.371094 217.660156 229.332031 218.007812 229.3125 218.351562 C 229.292969 218.699219 229.292969 219.046875 229.308594 219.394531 C 229.328125 219.742188 229.367188 220.085938 229.425781 220.429688 C 229.484375 220.773438 229.558594 221.109375 229.65625 221.445312 C 229.75 221.777344 229.867188 222.105469 230 222.429688 C 230.132812 222.75 230.28125 223.0625 230.449219 223.367188 C 230.617188 223.667969 230.804688 223.964844 231.003906 224.246094 C 231.207031 224.53125 231.421875 224.800781 231.65625 225.058594 C 231.886719 225.316406 232.132812 225.5625 232.394531 225.792969 C 232.652344 226.023438 232.925781 226.238281 233.210938 226.441406 C 233.492188 226.640625 233.789062 226.824219 234.09375 226.992188 C 234.398438 227.15625 234.710938 227.304688 235.03125 227.4375 C 235.355469 227.570312 235.683594 227.683594 236.015625 227.777344 C 236.351562 227.871094 236.691406 227.945312 237.035156 228 C 237.375 228.058594 237.722656 228.09375 238.066406 228.109375 C 238.414062 228.128906 238.761719 228.125 239.109375 228.101562 C 239.457031 228.078125 239.800781 228.039062 240.140625 227.976562 C 240.484375 227.914062 240.820312 227.835938 241.152344 227.734375 L 264.113281 250.675781 C 261.246094 251.429688 258.339844 251.953125 255.390625 252.238281 L 186.707031 252.289062 L 186.6875 224.027344 C 187.003906 223.882812 187.308594 223.71875 187.605469 223.539062 C 187.902344 223.359375 188.191406 223.164062 188.464844 222.953125 C 188.742188 222.742188 189.003906 222.511719 189.253906 222.273438 C 189.503906 222.03125 189.738281 221.773438 189.960938 221.507812 C 190.179688 221.238281 190.386719 220.957031 190.574219 220.664062 C 190.765625 220.375 190.9375 220.074219 191.09375 219.761719 C 191.246094 219.449219 191.386719 219.132812 191.503906 218.804688 C 191.625 218.476562 191.722656 218.144531 191.804688 217.808594 C 191.886719 217.46875 191.949219 217.128906 191.992188 216.78125 C 192.035156 216.4375 192.058594 216.089844 192.0625 215.742188 C 192.066406 215.394531 192.050781 215.050781 192.015625 214.703125 C 191.980469 214.355469 191.925781 214.015625 191.851562 213.675781 C 191.777344 213.335938 191.683594 213 191.570312 212.671875 C 191.460938 212.339844 191.328125 212.019531 191.179688 211.707031 C 191.03125 211.390625 190.867188 211.085938 190.683594 210.789062 C 190.5 210.492188 190.304688 210.210938 190.085938 209.9375 C 189.871094 209.664062 189.644531 209.402344 189.398438 209.15625 C 189.15625 208.90625 188.898438 208.675781 188.625 208.457031 C 188.355469 208.238281 188.074219 208.035156 187.78125 207.851562 C 187.484375 207.664062 187.183594 207.496094 186.871094 207.34375 C 186.558594 207.191406 186.238281 207.058594 185.910156 206.941406 C 185.582031 206.828125 185.25 206.730469 184.910156 206.652344 C 184.570312 206.574219 184.230469 206.515625 183.882812 206.476562 C 183.539062 206.4375 183.191406 206.417969 182.84375 206.417969 C 182.496094 206.417969 182.148438 206.4375 181.804688 206.476562 C 181.460938 206.515625 181.117188 206.574219 180.777344 206.652344 C 180.441406 206.730469 180.105469 206.828125 179.777344 206.941406 C 179.449219 207.058594 179.128906 207.191406 178.816406 207.34375 C 178.503906 207.496094 178.203125 207.664062 177.910156 207.851562 C 177.613281 208.035156 177.332031 208.238281 177.0625 208.457031 C 176.792969 208.675781 176.535156 208.90625 176.289062 209.15625 C 176.046875 209.402344 175.816406 209.664062 175.601562 209.9375 C 175.386719 210.210938 175.1875 210.492188 175.003906 210.789062 C 174.820312 211.085938 174.65625 211.390625 174.507812 211.707031 C 174.359375 212.019531 174.226562 212.339844 174.117188 212.671875 C 174.003906 213 173.910156 213.335938 173.835938 213.675781 C 173.761719 214.015625 173.707031 214.355469 173.671875 214.703125 C 173.636719 215.050781 173.621094 215.394531 173.625 215.742188 C 173.628906 216.089844 173.652344 216.4375 173.695312 216.78125 C 173.738281 217.128906 173.800781 217.46875 173.882812 217.808594 C 173.964844 218.144531 174.066406 218.476562 174.183594 218.804688 C 174.304688 219.132812 174.441406 219.449219 174.597656 219.761719 C 174.75 220.074219 174.921875 220.375 175.113281 220.664062 C 175.300781 220.957031 175.507812 221.238281 175.726562 221.507812 C 175.949219 221.773438 176.183594 222.03125 176.433594 222.273438 C 176.683594 222.511719 176.945312 222.742188 177.222656 222.953125 C 177.496094 223.164062 177.785156 223.359375 178.082031 223.539062 C 178.378906 223.71875 178.6875 223.882812 179.003906 224.027344 L 179.023438 252.289062 L 125.433594 252.328125 C 124.039062 252.328125 122.644531 252.273438 121.253906 252.164062 C 119.863281 252.058594 118.480469 251.898438 117.101562 251.683594 C 115.722656 251.46875 114.355469 251.203125 112.996094 250.886719 C 111.636719 250.566406 110.292969 250.195312 108.964844 249.773438 C 107.632812 249.351562 106.324219 248.882812 105.027344 248.359375 C 103.734375 247.835938 102.464844 247.265625 101.214844 246.648438 C 99.964844 246.027344 98.738281 245.359375 97.539062 244.648438 C 96.339844 243.933594 95.171875 243.175781 94.03125 242.371094 C 92.890625 241.570312 91.78125 240.722656 90.707031 239.835938 C 89.628906 238.945312 88.589844 238.019531 87.585938 237.050781 C 86.578125 236.082031 85.613281 235.078125 84.683594 234.035156 C 83.757812 232.996094 82.871094 231.917969 82.023438 230.808594 C 81.179688 229.699219 80.375 228.558594 79.617188 227.386719 C 78.859375 226.214844 78.148438 225.015625 77.480469 223.789062 C 76.816406 222.5625 76.195312 221.3125 75.625 220.039062 C 75.054688 218.765625 74.53125 217.472656 74.0625 216.160156 L 107.488281 216.136719 L 107.488281 223.449219 C 107.171875 223.59375 106.867188 223.753906 106.566406 223.933594 C 106.269531 224.113281 105.984375 224.308594 105.707031 224.523438 C 105.433594 224.734375 105.171875 224.960938 104.921875 225.203125 C 104.671875 225.445312 104.4375 225.699219 104.214844 225.96875 C 103.992188 226.238281 103.789062 226.515625 103.597656 226.808594 C 103.410156 227.101562 103.238281 227.402344 103.082031 227.714844 C 102.925781 228.023438 102.789062 228.34375 102.671875 228.671875 C 102.550781 228.996094 102.449219 229.328125 102.371094 229.667969 C 102.289062 230.003906 102.226562 230.347656 102.183594 230.691406 C 102.140625 231.039062 102.117188 231.382812 102.113281 231.730469 C 102.109375 232.078125 102.125 232.425781 102.160156 232.773438 C 102.195312 233.117188 102.25 233.460938 102.324219 233.800781 C 102.398438 234.140625 102.492188 234.476562 102.601562 234.804688 C 102.714844 235.132812 102.84375 235.457031 102.992188 235.769531 C 103.140625 236.085938 103.308594 236.390625 103.488281 236.683594 C 103.671875 236.980469 103.871094 237.265625 104.085938 237.539062 C 104.300781 237.8125 104.53125 238.074219 104.777344 238.320312 C 105.019531 238.566406 105.277344 238.800781 105.546875 239.019531 C 105.820312 239.234375 106.101562 239.4375 106.394531 239.625 C 106.6875 239.808594 106.992188 239.980469 107.304688 240.132812 C 107.617188 240.285156 107.9375 240.417969 108.265625 240.53125 C 108.59375 240.648438 108.925781 240.746094 109.265625 240.824219 C 109.605469 240.902344 109.945312 240.960938 110.292969 241 C 110.636719 241.039062 110.984375 241.058594 111.332031 241.058594 C 111.679688 241.058594 112.023438 241.039062 112.371094 241 C 112.714844 240.960938 113.058594 240.902344 113.394531 240.824219 C 113.734375 240.746094 114.066406 240.648438 114.394531 240.53125 C 114.722656 240.417969 115.042969 240.285156 115.355469 240.132812 C 115.667969 239.980469 115.972656 239.808594 116.265625 239.625 C 116.558594 239.4375 116.84375 239.234375 117.113281 239.019531 C 117.382812 238.800781 117.640625 238.566406 117.886719 238.320312 C 118.128906 238.074219 118.359375 237.8125 118.574219 237.539062 C 118.789062 237.265625 118.988281 236.980469 119.171875 236.683594 C 119.355469 236.390625 119.519531 236.085938 119.667969 235.769531 C 119.816406 235.457031 119.945312 235.132812 120.058594 234.804688 C 120.171875 234.476562 120.261719 234.140625 120.335938 233.800781 C 120.410156 233.460938 120.464844 233.117188 120.5 232.773438 C 120.539062 232.425781 120.554688 232.078125 120.550781 231.730469 C 120.546875 231.382812 120.523438 231.039062 120.480469 230.691406 C 120.4375 230.347656 120.375 230.003906 120.292969 229.667969 C 120.210938 229.328125 120.109375 228.996094 119.992188 228.671875 C 119.871094 228.34375 119.734375 228.023438 119.578125 227.714844 C 119.421875 227.402344 119.25 227.101562 119.0625 226.808594 C 118.871094 226.515625 118.667969 226.238281 118.445312 225.96875 C 118.226562 225.699219 117.992188 225.445312 117.742188 225.203125 C 117.492188 224.960938 117.226562 224.734375 116.953125 224.523438 C 116.675781 224.308594 116.390625 224.113281 116.09375 223.933594 C 115.796875 223.753906 115.488281 223.59375 115.171875 223.449219 L 115.171875 216.128906 L 133.925781 216.128906 C 134.070312 216.445312 134.234375 216.753906 134.414062 217.050781 C 134.59375 217.347656 134.789062 217.632812 135 217.910156 C 135.210938 218.1875 135.4375 218.449219 135.679688 218.699219 C 135.921875 218.949219 136.175781 219.183594 136.445312 219.40625 C 136.714844 219.625 136.992188 219.832031 137.285156 220.019531 C 137.578125 220.210938 137.878906 220.382812 138.1875 220.539062 C 138.5 220.695312 138.820312 220.832031 139.144531 220.949219 C 139.472656 221.070312 139.804688 221.167969 140.140625 221.25 C 140.480469 221.332031 140.820312 221.394531 141.167969 221.4375 C 141.511719 221.480469 141.855469 221.503906 142.203125 221.507812 C 142.550781 221.511719 142.898438 221.496094 143.246094 221.460938 C 143.589844 221.425781 143.933594 221.371094 144.273438 221.296875 C 144.613281 221.222656 144.945312 221.128906 145.277344 221.019531 C 145.605469 220.90625 145.925781 220.777344 146.242188 220.628906 C 146.554688 220.480469 146.859375 220.3125 147.15625 220.128906 C 147.453125 219.945312 147.734375 219.75 148.007812 219.53125 C 148.28125 219.316406 148.542969 219.089844 148.789062 218.84375 C 149.035156 218.597656 149.269531 218.339844 149.488281 218.070312 C 149.703125 217.800781 149.90625 217.515625 150.09375 217.222656 C 150.277344 216.929688 150.449219 216.625 150.601562 216.3125 C 150.75 216 150.886719 215.679688 151 215.351562 C 151.117188 215.023438 151.214844 214.691406 151.292969 214.351562 C 151.367188 214.011719 151.425781 213.671875 151.464844 213.324219 C 151.507812 212.980469 151.527344 212.632812 151.527344 212.285156 C 151.527344 211.9375 151.507812 211.589844 151.464844 211.246094 C 151.425781 210.898438 151.367188 210.558594 151.292969 210.21875 C 151.214844 209.878906 151.117188 209.546875 151 209.21875 C 150.886719 208.890625 150.75 208.570312 150.601562 208.257812 C 150.449219 207.945312 150.277344 207.640625 150.09375 207.347656 C 149.90625 207.054688 149.703125 206.769531 149.488281 206.5 C 149.269531 206.230469 149.035156 205.972656 148.789062 205.726562 C 148.542969 205.480469 148.28125 205.253906 148.007812 205.035156 C 147.734375 204.820312 147.453125 204.621094 147.15625 204.441406 C 146.859375 204.257812 146.554688 204.089844 146.242188 203.941406 C 145.925781 203.792969 145.605469 203.664062 145.277344 203.550781 C 144.945312 203.441406 144.613281 203.347656 144.273438 203.273438 C 143.933594 203.199219 143.589844 203.144531 143.246094 203.109375 C 142.898438 203.074219 142.550781 203.058594 142.203125 203.0625 C 141.855469 203.066406 141.511719 203.089844 141.167969 203.132812 C 140.820312 203.175781 140.480469 203.238281 140.140625 203.320312 C 139.804688 203.398438 139.472656 203.5 139.144531 203.621094 C 138.820312 203.738281 138.5 203.875 138.1875 204.03125 C 137.878906 204.1875 137.578125 204.359375 137.285156 204.550781 C 136.992188 204.738281 136.714844 204.945312 136.445312 205.164062 C 136.175781 205.386719 135.921875 205.621094 135.679688 205.871094 C 135.4375 206.121094 135.210938 206.382812 135 206.660156 C 134.789062 206.933594 134.59375 207.222656 134.414062 207.519531 C 134.234375 207.816406 134.070312 208.125 133.925781 208.441406 L 71.933594 208.484375 C 71.75 207.570312 71.589844 206.652344 71.457031 205.730469 C 71.320312 204.804688 71.207031 203.878906 71.117188 202.953125 C 71.03125 202.023438 70.964844 201.09375 70.925781 200.160156 C 70.882812 199.230469 70.867188 198.296875 70.875 197.363281 C 70.882812 196.429688 70.914062 195.5 70.96875 194.566406 C 71.023438 193.636719 71.101562 192.707031 71.203125 191.78125 C 71.304688 190.851562 71.433594 189.929688 71.582031 189.007812 C 71.730469 188.085938 71.90625 187.171875 72.101562 186.257812 C 72.296875 185.347656 72.519531 184.441406 72.761719 183.539062 C 73.003906 182.640625 73.273438 181.746094 73.5625 180.859375 C 73.851562 179.972656 74.160156 179.09375 74.496094 178.222656 C 74.832031 177.351562 75.1875 176.488281 75.566406 175.636719 C 75.945312 174.785156 76.34375 173.941406 76.765625 173.109375 C 77.1875 172.277344 77.628906 171.457031 78.09375 170.648438 C 78.558594 169.839844 79.042969 169.042969 79.546875 168.257812 C 80.050781 167.472656 80.574219 166.703125 81.121094 165.945312 C 81.664062 165.1875 82.226562 164.445312 82.808594 163.714844 C 83.390625 162.988281 83.992188 162.273438 84.609375 161.578125 C 85.230469 160.878906 85.867188 160.199219 86.519531 159.53125 C 87.171875 158.867188 87.84375 158.21875 88.53125 157.589844 C 89.21875 156.960938 89.921875 156.347656 90.640625 155.75 C 91.359375 155.15625 92.089844 154.582031 92.839844 154.023438 C 93.585938 153.46875 94.347656 152.929688 95.125 152.414062 C 95.898438 151.894531 96.6875 151.398438 97.488281 150.921875 C 98.289062 150.441406 99.101562 149.988281 99.925781 149.550781 C 100.753906 149.117188 101.585938 148.703125 102.433594 148.308594 C 103.277344 147.917969 104.132812 147.546875 105 147.195312 C 105.863281 146.847656 106.738281 146.523438 107.617188 146.21875 C 108.5 145.914062 109.386719 145.632812 110.285156 145.375 C 111.179688 145.117188 112.082031 144.882812 112.988281 144.667969 C 113.898438 144.457031 114.808594 144.269531 115.726562 144.105469 C 116.644531 143.9375 117.566406 143.796875 118.492188 143.679688 L 118.691406 143.652344 L 128.007812 148.164062 L 107.003906 169.210938 C 106.679688 169.089844 106.347656 168.988281 106.011719 168.90625 C 105.675781 168.824219 105.335938 168.761719 104.992188 168.714844 C 104.648438 168.671875 104.300781 168.648438 103.953125 168.640625 C 103.609375 168.636719 103.261719 168.652344 102.917969 168.6875 C 102.574219 168.71875 102.230469 168.773438 101.890625 168.84375 C 101.554688 168.917969 101.21875 169.011719 100.890625 169.121094 C 100.5625 169.230469 100.242188 169.359375 99.925781 169.507812 C 99.613281 169.652344 99.308594 169.816406 99.011719 169.996094 C 98.71875 170.179688 98.433594 170.375 98.160156 170.589844 C 97.886719 170.804688 97.625 171.03125 97.378906 171.273438 C 97.132812 171.515625 96.898438 171.773438 96.679688 172.042969 C 96.460938 172.3125 96.257812 172.59375 96.070312 172.882812 C 95.882812 173.175781 95.714844 173.476562 95.5625 173.789062 C 95.410156 174.101562 95.273438 174.421875 95.160156 174.746094 C 95.042969 175.074219 94.945312 175.40625 94.863281 175.742188 C 94.785156 176.082031 94.726562 176.421875 94.683594 176.765625 C 94.644531 177.109375 94.625 177.457031 94.621094 177.804688 C 94.621094 178.148438 94.636719 178.496094 94.675781 178.839844 C 94.714844 179.183594 94.769531 179.527344 94.847656 179.863281 C 94.921875 180.203125 95.019531 180.535156 95.132812 180.863281 C 95.246094 181.191406 95.378906 181.511719 95.527344 181.824219 C 95.675781 182.136719 95.84375 182.441406 96.027344 182.734375 C 96.210938 183.027344 96.414062 183.308594 96.628906 183.582031 C 96.84375 183.851562 97.074219 184.109375 97.320312 184.355469 C 97.566406 184.601562 97.824219 184.832031 98.097656 185.046875 C 98.367188 185.261719 98.648438 185.460938 98.945312 185.644531 C 99.238281 185.832031 99.539062 185.996094 99.855469 186.144531 C 100.167969 186.296875 100.488281 186.425781 100.8125 186.539062 C 101.140625 186.652344 101.472656 186.75 101.8125 186.824219 C 102.152344 186.898438 102.492188 186.957031 102.835938 186.992188 C 103.183594 187.03125 103.527344 187.046875 103.875 187.046875 C 104.21875 187.042969 104.566406 187.023438 104.910156 186.980469 C 105.253906 186.9375 105.59375 186.878906 105.933594 186.800781 C 106.269531 186.71875 106.601562 186.621094 106.925781 186.503906 C 107.253906 186.386719 107.574219 186.25 107.882812 186.097656 C 108.195312 185.945312 108.496094 185.773438 108.789062 185.585938 C 109.078125 185.398438 109.359375 185.195312 109.628906 184.976562 C 109.898438 184.757812 110.152344 184.523438 110.394531 184.277344 C 110.636719 184.027344 110.863281 183.769531 111.078125 183.492188 C 111.289062 183.21875 111.488281 182.933594 111.667969 182.640625 C 111.847656 182.34375 112.011719 182.039062 112.15625 181.722656 C 112.304688 181.410156 112.433594 181.085938 112.542969 180.757812 C 112.652344 180.429688 112.742188 180.09375 112.8125 179.757812 C 112.886719 179.417969 112.9375 179.074219 112.972656 178.730469 C 113.003906 178.382812 113.019531 178.039062 113.015625 177.691406 C 113.007812 177.34375 112.984375 177 112.9375 176.65625 C 112.894531 176.3125 112.828125 175.972656 112.746094 175.636719 C 112.664062 175.296875 112.5625 174.96875 112.441406 174.640625 L 135.332031 151.703125 L 162.445312 164.8125 C 162.324219 165.421875 162.261719 166.042969 162.265625 166.664062 C 162.265625 167.332031 162.335938 167.992188 162.484375 168.648438 C 162.628906 169.300781 162.839844 169.929688 163.121094 170.535156 C 163.402344 171.140625 163.746094 171.710938 164.152344 172.242188 C 164.558594 172.773438 165.015625 173.253906 165.527344 173.6875 C 166.035156 174.117188 166.585938 174.492188 167.179688 174.800781 C 167.769531 175.113281 168.386719 175.359375 169.03125 175.535156 C 169.675781 175.714844 170.332031 175.820312 171 175.855469 C 171.667969 175.886719 172.328125 175.851562 172.988281 175.742188 C 173.648438 175.628906 174.289062 175.449219 174.90625 175.203125 C 175.527344 174.953125 176.113281 174.640625 176.664062 174.261719 C 177.21875 173.886719 177.722656 173.453125 178.179688 172.964844 C 178.636719 172.480469 179.039062 171.949219 179.382812 171.375 C 179.722656 170.800781 180 170.195312 180.210938 169.5625 C 180.421875 168.929688 180.5625 168.277344 180.632812 167.613281 C 180.703125 166.949219 180.699219 166.285156 180.625 165.621094 C 180.550781 164.957031 180.40625 164.304688 180.191406 163.671875 C 179.972656 163.039062 179.691406 162.4375 179.347656 161.867188 C 179 161.296875 178.59375 160.769531 178.132812 160.285156 C 177.671875 159.800781 177.164062 159.375 176.609375 159 C 176.054688 158.628906 175.464844 158.320312 174.84375 158.074219 C 174.222656 157.828125 173.582031 157.65625 172.921875 157.550781 C 172.261719 157.445312 171.597656 157.410156 170.929688 157.453125 C 170.265625 157.492188 169.609375 157.601562 168.964844 157.785156 C 168.324219 157.964844 167.707031 158.214844 167.117188 158.53125 L 155.917969 153.109375 L 178.261719 130.71875 C 178.597656 130.808594 178.9375 130.882812 179.28125 130.933594 C 179.625 130.984375 179.96875 131.019531 180.316406 131.03125 C 180.660156 131.042969 181.007812 131.039062 181.355469 131.011719 C 181.699219 130.984375 182.042969 130.941406 182.382812 130.875 C 182.726562 130.808594 183.0625 130.726562 183.394531 130.625 C 183.722656 130.519531 184.046875 130.398438 184.367188 130.261719 C 184.683594 130.121094 184.992188 129.964844 185.292969 129.789062 C 185.59375 129.613281 185.882812 129.421875 186.160156 129.214844 C 186.4375 129.007812 186.703125 128.785156 186.957031 128.550781 C 187.210938 128.3125 187.449219 128.0625 187.675781 127.796875 C 187.898438 127.53125 188.109375 127.257812 188.300781 126.96875 C 188.496094 126.679688 188.671875 126.382812 188.832031 126.074219 C 188.992188 125.765625 189.136719 125.449219 189.261719 125.125 C 189.382812 124.800781 189.488281 124.472656 189.578125 124.136719 C 189.664062 123.800781 189.730469 123.460938 189.78125 123.117188 C 189.828125 122.773438 189.859375 122.425781 189.867188 122.078125 C 189.878906 121.734375 189.867188 121.386719 189.839844 121.039062 C 189.808594 120.695312 189.761719 120.351562 189.691406 120.011719 C 189.625 119.671875 189.535156 119.335938 189.429688 119.003906 C 189.324219 118.675781 189.199219 118.351562 189.058594 118.035156 C 188.914062 117.71875 188.753906 117.410156 188.578125 117.113281 C 188.398438 116.8125 188.207031 116.527344 187.996094 116.25 C 187.789062 115.972656 187.5625 115.710938 187.324219 115.457031 C 187.082031 115.207031 186.832031 114.96875 186.5625 114.746094 C 186.296875 114.527344 186.019531 114.320312 185.730469 114.128906 C 185.441406 113.9375 185.140625 113.761719 184.832031 113.605469 C 184.523438 113.449219 184.203125 113.308594 183.878906 113.1875 C 183.554688 113.066406 183.222656 112.964844 182.886719 112.878906 C 182.550781 112.796875 182.210938 112.730469 181.867188 112.6875 C 181.523438 112.640625 181.175781 112.613281 180.828125 112.609375 C 180.484375 112.601562 180.136719 112.617188 179.789062 112.648438 C 179.445312 112.679688 179.101562 112.734375 178.761719 112.804688 C 178.425781 112.875 178.089844 112.96875 177.761719 113.078125 C 177.429688 113.1875 177.109375 113.3125 176.792969 113.460938 C 176.480469 113.605469 176.171875 113.769531 175.878906 113.949219 C 175.582031 114.128906 175.296875 114.324219 175.019531 114.539062 C 174.746094 114.75 174.484375 114.976562 174.238281 115.21875 C 173.988281 115.460938 173.753906 115.71875 173.535156 115.988281 C 173.316406 116.253906 173.109375 116.535156 172.921875 116.828125 C 172.734375 117.117188 172.5625 117.421875 172.410156 117.730469 C 172.253906 118.042969 172.121094 118.359375 172 118.6875 C 171.882812 119.015625 171.785156 119.347656 171.703125 119.683594 C 171.621094 120.023438 171.5625 120.363281 171.519531 120.707031 C 171.476562 121.050781 171.457031 121.398438 171.453125 121.746094 C 171.449219 122.09375 171.464844 122.4375 171.503906 122.785156 C 171.539062 123.128906 171.59375 123.472656 171.667969 123.808594 C 171.742188 124.148438 171.835938 124.484375 171.949219 124.8125 C 172.0625 125.140625 172.191406 125.460938 172.339844 125.773438 L 148.59375 149.570312 L 122.902344 137.144531 C 123.390625 135.785156 123.929688 134.449219 124.523438 133.132812 C 125.117188 131.820312 125.761719 130.527344 126.457031 129.265625 C 127.15625 128 127.902344 126.765625 128.695312 125.5625 C 129.488281 124.355469 130.328125 123.183594 131.21875 122.046875 C 132.105469 120.910156 133.035156 119.808594 134.007812 118.746094 C 134.984375 117.679688 136 116.65625 137.054688 115.671875 C 138.113281 114.691406 139.203125 113.75 140.335938 112.855469 C 141.464844 111.957031 142.628906 111.105469 143.828125 110.304688 C 145.027344 109.5 146.253906 108.746094 147.511719 108.039062 C 148.769531 107.332031 150.054688 106.675781 151.363281 106.070312 C 152.671875 105.46875 154.003906 104.917969 155.359375 104.417969 C 156.710938 103.917969 158.082031 103.476562 159.472656 103.085938 C 160.863281 102.695312 162.265625 102.363281 163.679688 102.085938 C 165.09375 101.804688 166.519531 101.585938 167.953125 101.421875 C 169.386719 101.253906 170.820312 101.148438 172.265625 101.097656 C 173.707031 101.046875 175.148438 101.050781 176.585938 101.117188 C 178.027344 101.179688 179.464844 101.300781 180.894531 101.480469 C 182.328125 101.65625 183.75 101.890625 185.164062 102.183594 C 186.574219 102.472656 187.976562 102.820312 189.359375 103.222656 C 190.746094 103.625 192.113281 104.082031 193.460938 104.59375 C 194.8125 105.101562 196.136719 105.667969 197.441406 106.28125 C 198.746094 106.898438 200.023438 107.566406 201.273438 108.285156 C 202.527344 109 203.746094 109.769531 204.9375 110.582031 C 206.128906 111.398438 207.285156 112.257812 208.40625 113.164062 C 209.53125 114.070312 210.613281 115.023438 211.660156 116.015625 C 212.707031 117.007812 213.714844 118.039062 214.679688 119.113281 C 215.644531 120.1875 216.566406 121.296875 217.441406 122.441406 C 218.316406 123.585938 219.148438 124.765625 219.929688 125.980469 C 220.714844 127.191406 221.449219 128.433594 222.132812 129.703125 C 222.816406 130.972656 223.453125 132.269531 224.03125 133.589844 C 224.613281 134.910156 225.144531 136.25 225.617188 137.613281 C 226.09375 138.976562 226.515625 140.355469 226.882812 141.75 L 194.808594 180.101562 C 194.191406 179.953125 193.566406 179.867188 192.929688 179.851562 C 192.292969 179.832031 191.664062 179.878906 191.039062 179.992188 C 190.410156 180.101562 189.804688 180.277344 189.214844 180.515625 C 188.625 180.753906 188.066406 181.050781 187.535156 181.402344 C 187.007812 181.757812 186.519531 182.160156 186.074219 182.617188 C 185.632812 183.070312 185.238281 183.566406 184.894531 184.101562 C 184.550781 184.636719 184.269531 185.203125 184.042969 185.796875 C 183.816406 186.390625 183.65625 187.003906 183.554688 187.632812 C 183.457031 188.261719 183.421875 188.894531 183.453125 189.527344 C 183.484375 190.164062 183.582031 190.789062 183.742188 191.40625 C 183.902344 192.019531 184.125 192.613281 184.410156 193.183594 C 184.691406 193.75 185.03125 194.285156 185.425781 194.785156 C 185.820312 195.285156 186.261719 195.738281 186.746094 196.148438 C 187.234375 196.554688 187.761719 196.910156 188.320312 197.207031 C 188.882812 197.507812 189.46875 197.746094 190.078125 197.925781 C 190.6875 198.101562 191.3125 198.21875 191.945312 198.265625 C 192.578125 198.316406 193.210938 198.300781 193.839844 198.21875 C 194.472656 198.136719 195.089844 197.992188 195.6875 197.785156 C 196.289062 197.574219 196.863281 197.304688 197.40625 196.980469 C 197.953125 196.652344 198.457031 196.269531 198.925781 195.839844 C 199.390625 195.40625 199.808594 194.929688 200.175781 194.414062 C 200.546875 193.894531 200.855469 193.34375 201.109375 192.757812 C 201.367188 192.175781 201.558594 191.574219 201.6875 190.949219 C 201.816406 190.328125 201.882812 189.699219 201.878906 189.0625 C 201.878906 187.574219 201.539062 186.171875 200.855469 184.851562 L 211.34375 172.320312 L 221.480469 182.445312 C 221.359375 182.773438 221.257812 183.105469 221.171875 183.441406 C 221.089844 183.78125 221.023438 184.121094 220.980469 184.464844 C 220.9375 184.8125 220.910156 185.160156 220.90625 185.507812 C 220.898438 185.855469 220.914062 186.203125 220.945312 186.546875 C 220.980469 186.894531 221.035156 187.238281 221.105469 187.578125 C 221.179688 187.917969 221.269531 188.253906 221.378906 188.582031 C 221.488281 188.914062 221.617188 189.234375 221.765625 189.550781 C 221.914062 189.867188 222.078125 190.171875 222.257812 190.46875 C 222.4375 190.765625 222.636719 191.050781 222.851562 191.328125 C 223.0625 191.601562 223.292969 191.863281 223.535156 192.113281 C 223.777344 192.359375 224.035156 192.59375 224.304688 192.8125 C 224.574219 193.035156 224.855469 193.238281 225.148438 193.425781 C 225.441406 193.613281 225.746094 193.785156 226.054688 193.9375 C 226.367188 194.089844 226.6875 194.226562 227.015625 194.34375 C 227.34375 194.460938 227.675781 194.558594 228.015625 194.640625 C 228.351562 194.71875 228.695312 194.78125 229.039062 194.820312 C 229.386719 194.863281 229.730469 194.882812 230.078125 194.886719 C 230.425781 194.886719 230.773438 194.867188 231.121094 194.832031 C 231.464844 194.792969 231.808594 194.738281 232.148438 194.660156 C 232.488281 194.585938 232.820312 194.488281 233.148438 194.375 C 233.476562 194.261719 233.800781 194.128906 234.113281 193.980469 C 234.425781 193.828125 234.730469 193.660156 235.023438 193.476562 C 235.320312 193.292969 235.601562 193.089844 235.875 192.875 C 236.148438 192.65625 236.40625 192.425781 236.652344 192.179688 C 236.898438 191.933594 237.128906 191.671875 237.34375 191.402344 C 237.5625 191.128906 237.761719 190.84375 237.945312 190.550781 C 238.132812 190.253906 238.296875 189.949219 238.449219 189.636719 C 238.597656 189.324219 238.730469 189 238.84375 188.671875 C 238.957031 188.34375 239.050781 188.011719 239.128906 187.671875 C 239.203125 187.332031 239.261719 186.988281 239.296875 186.640625 C 239.335938 186.296875 239.351562 185.949219 239.351562 185.601562 C 239.347656 185.253906 239.328125 184.90625 239.285156 184.5625 C 239.242188 184.214844 239.183594 183.875 239.101562 183.535156 C 239.023438 183.195312 238.925781 182.863281 238.808594 182.535156 C 238.691406 182.207031 238.554688 181.886719 238.398438 181.578125 C 238.246094 181.265625 238.074219 180.960938 237.886719 180.667969 C 237.699219 180.375 237.496094 180.09375 237.277344 179.824219 C 237.054688 179.554688 236.820312 179.300781 236.574219 179.054688 C 236.324219 178.8125 236.0625 178.585938 235.789062 178.371094 C 235.515625 178.15625 235.226562 177.960938 234.929688 177.777344 C 234.632812 177.597656 234.328125 177.433594 234.011719 177.285156 C 233.699219 177.140625 233.375 177.011719 233.046875 176.902344 C 232.714844 176.792969 232.378906 176.699219 232.039062 176.628906 C 231.699219 176.554688 231.355469 176.503906 231.011719 176.46875 C 230.664062 176.4375 230.316406 176.421875 229.96875 176.429688 C 229.621094 176.433594 229.277344 176.460938 228.929688 176.503906 C 228.585938 176.550781 228.246094 176.613281 227.90625 176.699219 C 227.570312 176.78125 227.238281 176.886719 226.910156 177.007812 L 216.296875 166.398438 L 233.328125 146.035156 C 238.742188 144.28125 244.292969 143.40625 249.980469 143.414062 C 251.527344 143.414062 253.074219 143.480469 254.613281 143.613281 C 256.15625 143.742188 257.6875 143.941406 259.210938 144.203125 C 260.734375 144.464844 262.246094 144.792969 263.742188 145.183594 C 265.238281 145.574219 266.71875 146.027344 268.175781 146.546875 C 269.632812 147.0625 271.066406 147.640625 272.476562 148.277344 C 273.886719 148.917969 275.265625 149.613281 276.613281 150.371094 C 277.964844 151.125 279.277344 151.9375 280.558594 152.804688 C 281.839844 153.671875 283.082031 154.59375 284.285156 155.566406 C 285.488281 156.539062 286.644531 157.5625 287.761719 158.636719 C 288.878906 159.707031 289.945312 160.824219 290.964844 161.988281 C 291.988281 163.152344 292.957031 164.355469 293.875 165.601562 C 294.792969 166.847656 295.65625 168.128906 296.46875 169.445312 C 297.277344 170.765625 298.027344 172.117188 298.722656 173.5 C 299.417969 174.882812 300.050781 176.292969 300.628906 177.730469 C 301.203125 179.164062 301.714844 180.625 302.167969 182.105469 C 302.617188 183.585938 303.003906 185.082031 303.328125 186.59375 L 275.675781 186.59375 C 275.53125 186.28125 275.371094 185.972656 275.191406 185.675781 C 275.011719 185.375 274.8125 185.089844 274.601562 184.816406 C 274.390625 184.539062 274.164062 184.277344 273.921875 184.027344 C 273.679688 183.777344 273.425781 183.539062 273.15625 183.320312 C 272.886719 183.097656 272.609375 182.894531 272.316406 182.703125 C 272.027344 182.515625 271.722656 182.34375 271.414062 182.1875 C 271.101562 182.03125 270.785156 181.894531 270.457031 181.773438 C 270.128906 181.65625 269.796875 181.554688 269.460938 181.472656 C 269.121094 181.390625 268.78125 181.328125 268.4375 181.285156 C 268.089844 181.242188 267.746094 181.21875 267.398438 181.214844 C 267.050781 181.210938 266.703125 181.226562 266.359375 181.261719 C 266.011719 181.296875 265.667969 181.355469 265.328125 181.425781 C 264.992188 181.5 264.65625 181.59375 264.328125 181.707031 C 263.996094 181.820312 263.675781 181.949219 263.363281 182.097656 C 263.046875 182.246094 262.742188 182.410156 262.445312 182.59375 C 262.152344 182.777344 261.867188 182.976562 261.59375 183.191406 C 261.320312 183.40625 261.058594 183.636719 260.8125 183.882812 C 260.566406 184.125 260.332031 184.382812 260.117188 184.65625 C 259.898438 184.925781 259.695312 185.207031 259.507812 185.5 C 259.324219 185.796875 259.15625 186.097656 259.003906 186.410156 C 258.851562 186.722656 258.71875 187.042969 258.601562 187.371094 C 258.484375 187.699219 258.390625 188.035156 258.3125 188.371094 C 258.234375 188.710938 258.175781 189.054688 258.136719 189.398438 C 258.097656 189.746094 258.078125 190.09375 258.078125 190.441406 C 258.078125 190.789062 258.097656 191.132812 258.136719 191.480469 C 258.175781 191.824219 258.234375 192.167969 258.3125 192.507812 C 258.390625 192.84375 258.484375 193.179688 258.601562 193.507812 C 258.71875 193.835938 258.851562 194.15625 259.003906 194.46875 C 259.15625 194.78125 259.324219 195.085938 259.507812 195.378906 C 259.695312 195.671875 259.898438 195.953125 260.117188 196.226562 C 260.332031 196.496094 260.566406 196.753906 260.8125 197 C 261.058594 197.242188 261.320312 197.472656 261.59375 197.6875 C 261.867188 197.902344 262.152344 198.101562 262.445312 198.285156 C 262.742188 198.46875 263.046875 198.632812 263.363281 198.78125 C 263.675781 198.929688 263.996094 199.058594 264.328125 199.171875 C 264.65625 199.285156 264.992188 199.378906 265.328125 199.453125 C 265.667969 199.527344 266.011719 199.582031 266.359375 199.617188 C 266.703125 199.652344 267.050781 199.667969 267.398438 199.664062 C 267.746094 199.660156 268.089844 199.636719 268.4375 199.59375 C 268.78125 199.550781 269.121094 199.488281 269.460938 199.40625 C 269.796875 199.324219 270.128906 199.222656 270.457031 199.105469 C 270.785156 198.984375 271.101562 198.847656 271.414062 198.691406 C 271.722656 198.539062 272.027344 198.363281 272.316406 198.175781 C 272.609375 197.984375 272.886719 197.78125 273.15625 197.558594 C 273.425781 197.339844 273.679688 197.101562 273.921875 196.851562 C 274.164062 196.601562 274.390625 196.339844 274.601562 196.066406 C 274.8125 195.789062 275.011719 195.503906 275.191406 195.203125 C 275.371094 194.90625 275.53125 194.601562 275.675781 194.285156 L 304.390625 194.285156 C 304.46875 195.476562 304.515625 196.683594 304.515625 197.898438 C 304.53125 200.527344 304.351562 203.144531 303.988281 205.75 C 303.621094 208.351562 303.066406 210.917969 302.328125 213.441406 C 301.589844 215.964844 300.675781 218.421875 299.578125 220.8125 C 298.484375 223.203125 297.222656 225.5 295.792969 227.707031 C 294.363281 229.914062 292.78125 232.007812 291.050781 233.984375 C 289.316406 235.960938 287.453125 237.800781 285.453125 239.507812 C 283.453125 241.214844 281.339844 242.765625 279.113281 244.164062 C 276.890625 245.5625 274.574219 246.796875 272.171875 247.859375 Z M 272.183594 247.878906 " fill-opacity="1" fill-rule="nonzero"/></g></svg>